<?xml version="1.0" encoding="UTF-8"?>
<!-- Created with Inkscape (http://www.inkscape.org/) -->
<svg width="16" height="16" version="1.1" viewBox="0 0 4.2333 4.2333" xmlns="http://www.w3.org/2000/svg">
 <path d="m1.8521 0.79374v1.5875h-0.79374l1.0583 1.0583 1.0583-1.0583h-0.79374v-1.5875h-0.52916z" stroke-linejoin="round" stroke-width=".45007" style="paint-order:stroke markers fill"/>
 <path d="m2.1166 0a2.1167 2.1167 0 0 0-2.1166 2.1166 2.1167 2.1167 0 0 0 2.1166 2.1166 2.1167 2.1167 0 0 0 2.1166-2.1166 2.1167 2.1167 0 0 0-2.1166-2.1166zm0 0.52916a1.5875 1.5875 0 0 1 1.5875 1.5875 1.5875 1.5875 0 0 1-0.27905 0.89761l-2.2055-2.206a1.5875 1.5875 0 0 1 0.8971-0.27905zm-1.3188 0.70589 2.1998 2.2004a1.5875 1.5875 0 0 1-0.88108 0.26872 1.5875 1.5875 0 0 1-1.5875-1.5875 1.5875 1.5875 0 0 1 0.26872-0.88159z" fill="#2b0000" stroke-linejoin="round" stroke-width=".52916" style="paint-order:stroke markers fill"/>
</svg>
